<?xml version="1.0" standalone="no"?><!DOCTYPE svg PUBLIC "-//W3C//DTD SVG 1.1//EN" "http://www.w3.org/Graphics/SVG/1.1/DTD/svg11.dtd"><svg t="1559545472157" class="icon" style="" viewBox="0 0 1024 1024" version="1.1" xmlns="http://www.w3.org/2000/svg" p-id="1560" xmlns:xlink="http://www.w3.org/1999/xlink" width="32" height="32"><defs><style type="text/css"></style></defs><path d="M849.066667 196.266667l-87.466667-87.466667C746.666667 93.866667 725.333333 85.333333 701.866667 85.333333H396.8c-38.4 0-68.266667 29.866667-68.266667 68.266667v546.133333c0 38.4 29.866667 68.266667 68.266667 68.266667h409.6c38.4 0 68.266667-29.866667 68.266667-68.266667V258.133333c0-23.466667-8.533333-44.8-25.6-61.866666z m-360.533334 70.4h140.8c17.066667 0 32 14.933333 32 32s-14.933333 32-32 32h-140.8c-17.066667 0-32-14.933333-32-32s14.933333-32 32-32z m226.133334 320H488.533333c-17.066667 0-32-14.933333-32-32s14.933333-32 32-32h226.133334c17.066667 0 32 14.933333 32 32s-14.933333 32-32 32z m0-128H488.533333c-17.066667 0-32-14.933333-32-32s14.933333-32 32-32h226.133334c17.066667 0 32 14.933333 32 32s-14.933333 32-32 32z" p-id="1561" fill="#333333"></path><path d="M264.533333 699.733333V256h-46.933333C179.2 256 149.333333 285.866667 149.333333 324.266667v546.133333c0 38.4 29.866667 68.266667 68.266667 68.266667h409.6c38.4 0 68.266667-29.866667 68.266667-68.266667V832h-298.666667c-72.533333 0-132.266667-59.733333-132.266667-132.266667z" p-id="1562" fill="#333333"></path></svg>